# xmcd
#
# Track frame offsets:
#	182
#	14195
#	39180
#	53910
#	74455
#	83227
#	96767
#	118392
#	132210
#	148932
#	160787
#	178797
#	198527
#	213682
#	230867
#	256355
#	269210
#	283170
#
# Disc length: 4171 seconds
#
# Revision: 5
# Processed by: cddbd v1.5.2PL0 Copyright (c) Steve Scherf et al.
# Submitted via: audiograbber 1.83.01
#
DISCID=2a104912
DTITLE=Various Artist - Born With The Blues, Vol. 3
DYEAR=1994
DGENRE=Blues
TTITLE0=King Biscuit Boy and The Ronnie Hawkins Band - Neighbour Neighbour
TTITLE1=Louisiana Red - Sometimes I Wonder
TTITLE2=Cool Drink Of Water - Cool Drink Of Water
TTITLE3=Tommy Tucker - Alimoney
TTITLE4=Earl Hooker - The Foxtrot
TTITLE5=Screamin' Jay Hawkins - She Put The Wammee On Me
TTITLE6=Buster Benton and Carey Bell - Born With The Blues
TTITLE7=Lightnin' Hopkins - Got Me A Louisiana Woman
TTITLE8=Albert Collins - The Things I Used To Do
TTITLE9=The Paul deLay Band - Rode Myself Crazy
TTITLE10=Muddy Waters - Honey Bee
TTITLE11=Billy Boy Arnold - Sweet Miss Bea
TTITLE12=Jimmy Reed - Down At The Corner Grocery Store
TTITLE13=Matt 'Guitar' Murphy - Taking Off
TTITLE14=The Mighty Houserockers - Play The Blues For You
TTITLE15=Paul Butterfield - Loaded
TTITLE16=The Clovers - He Sure Could Hypnotize
TTITLE17=Eddie Clearwater - Came Up The Hard Way
EXTD=
EXTT0=
EXTT1=
EXTT2=
EXTT3=
EXTT4=
EXTT5=
EXTT6=
EXTT7=
EXTT8=
EXTT9=
EXTT10=
EXTT11=
EXTT12=
EXTT13=
EXTT14=
EXTT15=
EXTT16=
EXTT17=
PLAYORDER=
